<svg xmlns="http://www.w3.org/2000/svg" viewBox="0 0 515.4 118.7" enable-background="new 0 0 515.4 118.7"><style type="text/css">.st0{fill:#828282;} .st1{fill:#FD8A02;}</style><path d="M259.8 24.6H277v74.9h-17.2z" class="st0"/><path d="M104 24.6L79.6 90.3l-.2.5c-2 5.3-6.8 9.2-12.6 10-.7.1-1.4.2-2.2.2-.8 0-1.5-.1-2.3-.2-5.6-.8-10.3-4.6-12.4-9.7l-.4-1.1-24.3-65.4h20.2l19.2 51.7 19.1-51.7 1.8-5C88.7 11.4 77.8 0 44.4 0S-1.2 14 .1 30.1C1.4 46.1 20 83 29.4 97.5c9.2 14.1 21.8 21.2 34.7 21.2 12.9 0 26.6-6.5 34.5-26.7 6-15.3 25.8-67.5 25.8-67.5H104z" class="st1"/><path d="M196.5 63.3c0 1.6-.1 3-.3 4.7h-55c2 12.2 10.5 19 21.6 19 8.4 0 14.3-3.1 20.3-8.9l10.1 8.9c-7.1 8.5-16.9 14-30.6 14-21.7 0-38.4-15.7-38.4-39 0-21.6 15.2-39.1 36.6-39.1 23.6 0 35.7 18.8 35.7 40.4zm-17-6.6c-1.1-11.1-7.7-19.7-19-19.7-10.5 0-17.9 8.1-19.4 19.7h38.4zM487.7 61l26.5-36.4H496l-17.3 24.7-17.3-24.7h-18.7l26.5 36.9-27.5 38H460l18.3-26.2 18.4 26.2h18.7L487.7 61zM442.5 62c0 21.5-17.5 39.1-39.1 39.1-21.5 0-39.1-17.5-39.1-39.1 0-21.5 17.5-39.1 39.1-39.1s39.1 17.6 39.1 39.1zm-15.2 0c0-13.1-10.7-23.8-23.8-23.8-13.1 0-23.8 10.7-23.8 23.8 0 13.1 10.7 23.8 23.8 23.8 13.1 0 23.8-10.7 23.8-23.8zM346.6 24.6L326.3 79l-20.1-54.4h-18.4l30.7 74.8H334l30.6-74.8zM208.1 58.7v40.7h17.2V58.7c0-.4 0-1.1.1-2 .5-4.5 3.3-13.8 16.9-14.9.9-.1 1.8-.1 2.7-.1V24.5c-.6 0-1.2 0-1.7 0-23.6.8-34.6 17.2-35.2 33 0 .4 0 .8 0 1.2z" class="st0"/></svg>